<?xml version="1.0" encoding="utf-8"?>
<!-- Generator: Adobe Illustrator 24.3.0, SVG Export Plug-In . SVG Version: 6.00 Build 0)  -->
<svg version="1.1" id="Layer_1" xmlns="http://www.w3.org/2000/svg" xmlns:xlink="http://www.w3.org/1999/xlink" x="0px" y="0px"
	 viewBox="0 0 64 64" style="enable-background:new 0 0 64 64;" xml:space="preserve">
<style type="text/css">
	.st0{fill:#FFFFFF;}
</style>
<path id="Path_1068" class="st0" d="M43.8,38.9v-2.4c0-0.6-0.5-1.2-1.1-1.2h-0.1H21.4c-0.6,0-1.2,0.5-1.2,1.1v0.1v2.4
	c0,0.6,0.5,1.2,1.1,1.2h0.1h21.3C43.3,40.1,43.8,39.6,43.8,38.9C43.8,39,43.8,38.9,43.8,38.9z"/>
<path id="Path_1069" class="st0" d="M43.8,29.5v-2.4c0-0.6-0.5-1.2-1.1-1.2h-0.1H21.4c-0.6,0-1.2,0.5-1.2,1.1v0.1v2.4
	c0,0.6,0.5,1.2,1.1,1.2h0.1h21.3C43.3,30.7,43.8,30.2,43.8,29.5L43.8,29.5z"/>
<path id="Path_1070" class="st0" d="M43.8,20v-2.4c0-0.6-0.5-1.2-1.1-1.2h-0.1H21.4c-0.6,0-1.2,0.5-1.2,1.1v0.1V20
	c0,0.6,0.5,1.2,1.1,1.2h0.1h21.3C43.3,21.2,43.8,20.7,43.8,20C43.8,20.1,43.8,20,43.8,20z"/>
<path class="st0" d="M48.4,40.7C42.6,40.7,38,45.3,38,51s4.6,10.4,10.4,10.4S58.8,56.8,58.8,51S54.1,40.7,48.4,40.7z M54.5,52.3
	h-4.7v5H47v-5h-4.7v-2.7H47v-5h2.8v5h4.7V52.3z"/>
<path class="st0" d="M34.8,51.3H16.7c-0.1,0-0.2-0.1-0.4-0.3c-0.2-0.3-0.4-0.6-0.5-1c-0.2-0.5-0.3-1-0.3-1.5V17.6l0,0v-5.5
	c0-0.5,0.1-1,0.3-1.5c0.1-0.4,0.3-0.7,0.5-1c0.2-0.2,0.3-0.3,0.4-0.3h30.7c0.1,0,0.2,0.1,0.4,0.3c0.2,0.3,0.4,0.6,0.5,1
	c0.2,0.5,0.3,1,0.3,1.5v25.2c1.7,0,3.3,0.3,4.7,0.9V17.6l0,0V12c0.1-1.9-0.6-3.7-1.7-5.2c-1-1.3-2.5-2.1-4.2-2.2H16.6
	c-1.7,0-3.2,0.9-4.2,2.2c-1.2,1.5-1.8,3.4-1.7,5.3V43l0,0v5.6c-0.1,1.9,0.6,3.7,1.7,5.2c1,1.3,2.5,2.1,4.2,2.2h19.1
	C35.1,54.6,34.8,53,34.8,51.3z"/>
</svg>
