<?xml version="1.0" encoding="utf-8"?>
<!-- Generator: Adobe Illustrator 24.0.3, SVG Export Plug-In . SVG Version: 6.00 Build 0)  -->
<svg version="1.1" id="Layer_1" xmlns="http://www.w3.org/2000/svg" xmlns:xlink="http://www.w3.org/1999/xlink" x="0px" y="0px"
	 viewBox="0 0 64 64" style="enable-background:new 0 0 64 64;" xml:space="preserve">
<style type="text/css">
	.st0{opacity:0.5;fill:#FFFFFF;enable-background:new    ;}
	.st1{opacity:0.8;fill:#FFFFFF;enable-background:new    ;}
</style>
<g>
	<path id="Rectangle_551" class="st0" d="M24.3,17.4h15.4c0.6,0,1,0.4,1,1V30c0,0.6-0.4,1-1,1H24.3c-0.6,0-1-0.4-1-1V18.4
		C23.3,17.8,23.7,17.4,24.3,17.4z"/>
	<path id="Rectangle_552" class="st0" d="M43.6,17.4H59c0.6,0,1,0.4,1,1V30c0,0.6-0.4,1-1,1H43.6c-0.6,0-1-0.4-1-1V18.4
		C42.6,17.8,43,17.4,43.6,17.4z"/>
	<path id="Rectangle_551_1_" class="st0" d="M24.3,33.1h15.4c0.6,0,1,0.4,1,1v11.6c0,0.6-0.4,1-1,1H24.3c-0.6,0-1-0.4-1-1V34
		C23.3,33.5,23.7,33.1,24.3,33.1z"/>
	<path id="Rectangle_551_3_" class="st1" d="M5,17.4h15.4c0.6,0,1,0.4,1,1V30c0,0.6-0.4,1-1,1H5c-0.6,0-1-0.4-1-1V18.4
		C4,17.8,4.4,17.4,5,17.4z"/>
	<path id="Rectangle_551_2_" class="st0" d="M5,33.1h15.4c0.6,0,1,0.4,1,1v11.6c0,0.6-0.4,1-1,1H5c-0.6,0-1-0.4-1-1V34
		C4,33.5,4.4,33.1,5,33.1z"/>
	<path id="Rectangle_552_1_" class="st0" d="M43.6,33.1H59c0.6,0,1,0.4,1,1v11.6c0,0.6-0.4,1-1,1H43.6c-0.6,0-1-0.4-1-1V34
		C42.6,33.5,43,33.1,43.6,33.1z"/>
</g>
</svg>
