<?xml version="1.0" encoding="utf-8"?>
<!-- Generator: Adobe Illustrator 24.0.3, SVG Export Plug-In . SVG Version: 6.00 Build 0)  -->
<svg version="1.1" id="Layer_1" xmlns="http://www.w3.org/2000/svg" xmlns:xlink="http://www.w3.org/1999/xlink" x="0px" y="0px"
	 viewBox="0 0 64 64" style="enable-background:new 0 0 64 64;" xml:space="preserve">
<style type="text/css">
	.st0{opacity:0.8;fill:#FFFFFF;enable-background:new    ;}
	.st1{opacity:0.5;fill:#FFFFFF;enable-background:new    ;}
</style>
<path id="Rectangle_542" class="st0" d="M6,18h24c0.6,0,1,0.4,1,1v11c0,0.6-0.4,1-1,1H6c-0.6,0-1-0.4-1-1V19C5,18.4,5.4,18,6,18z"/>
<path id="Rectangle_593" class="st1" d="M6,33h24c0.6,0,1,0.4,1,1v11c0,0.6-0.4,1-1,1H6c-0.6,0-1-0.4-1-1V34C5,33.4,5.4,33,6,33z"/>
<path id="Rectangle_593_1_" class="st1" d="M34,33h24c0.6,0,1,0.4,1,1v11c0,0.6-0.4,1-1,1H34c-0.6,0-1-0.4-1-1V34
	C33,33.4,33.4,33,34,33z"/>
<path id="Rectangle_543" class="st1" d="M34,18h24c0.6,0,1,0.4,1,1v11c0,0.6-0.4,1-1,1H34c-0.6,0-1-0.4-1-1V19
	C33,18.4,33.4,18,34,18z"/>
</svg>
