<?xml version="1.0" encoding="utf-8"?>
<!-- Generator: Adobe Illustrator 24.1.3, SVG Export Plug-In . SVG Version: 6.00 Build 0)  -->
<svg version="1.1" id="Layer_1" xmlns="http://www.w3.org/2000/svg" xmlns:xlink="http://www.w3.org/1999/xlink" x="0px" y="0px"
	 viewBox="0 0 60 60" style="enable-background:new 0 0 60 60;" xml:space="preserve">
<style type="text/css">
	.st0{fill:#FFFFFF;}
</style>
<g>
	<path class="st0" d="M41.8,28.4h-6.2l4.1,4.5h2.1c1-0.3,1.8-1.1,1.8-2.2C43.5,29.5,42.8,28.6,41.8,28.4z"/>
	<g>
		<path class="st0" d="M10.3,6.1C9.7,5.5,8.8,5.4,8.1,6C7.5,6.5,7.5,7.5,8,8.1l8.9,9.8C10.8,18.9,6,24.2,6,30.6v0.2
			c0,7.1,5.8,13,13,13h10.8c1,0,1.8-0.8,1.8-1.8c0-1-0.8-1.8-1.8-1.8H19c-5.1,0-9.3-4.2-9.3-9.3v-0.2c0-5.1,4.2-9.3,9.3-9.3
			c0.1,0,0.6,0,1,0l6.4,7.1H22c-1.3,0-2.4,1-2.4,2.4c0,1.3,1,2.4,2.4,2.4h8.7l6.4,7.1H37c-1,0-1.8,0.8-1.8,1.8c0,1,0.8,1.8,1.8,1.8
			h3c0.1,0,0.2-0.1,0.3-0.1l9.2,10.2c0.3,0.3,0.7,0.5,1.1,0.5c0.3,0,0.7-0.1,1-0.4c0.6-0.5,0.7-1.6,0.1-2.2L10.3,6.1z"/>
		<path class="st0" d="M41,17.8H30c-1,0-1.8,0.8-1.8,1.8c0,1,0.8,1.8,1.8,1.8h11c5.1,0,9.3,4.2,9.3,9.3v0.1c0,3.3-1.8,6.4-4.7,8.1
			c-0.9,0.5-1.2,1.7-0.7,2.5c0.3,0.6,1,1,1.6,1c0.3,0,0.6-0.1,0.9-0.3c4.1-2.4,6.6-6.6,6.6-11.2v-0.2C54,23.5,48.2,17.8,41,17.8z"/>
	</g>
</g>
</svg>
