<?xml version="1.0" encoding="utf-8"?>
<!-- Generator: Adobe Illustrator 24.0.3, SVG Export Plug-In . SVG Version: 6.00 Build 0)  -->
<svg version="1.1" id="Layer_1" xmlns="http://www.w3.org/2000/svg" xmlns:xlink="http://www.w3.org/1999/xlink" x="0px" y="0px"
	 viewBox="0 0 64 64" style="enable-background:new 0 0 64 64;" xml:space="preserve">
<style type="text/css">
	.st0{opacity:0.8;fill:#FFFFFF;enable-background:new    ;}
	.st1{opacity:0.5;fill:#FFFFFF;enable-background:new    ;}
</style>
<path id="Rectangle_544" class="st0" d="M8,19h9c0.6,0,1,0.4,1,1v5c0,0.6-0.4,1-1,1H8c-0.6,0-1-0.4-1-1v-5C7,19.4,7.4,19,8,19z"/>
<path id="Rectangle_547" class="st1" d="M8,28h9c0.6,0,1,0.4,1,1v6c0,0.6-0.4,1-1,1H8c-0.6,0-1-0.4-1-1v-6C7,28.4,7.4,28,8,28z"/>
<path id="Rectangle_549" class="st1" d="M8,38h9c0.6,0,1,0.4,1,1v5c0,0.6-0.4,1-1,1H8c-0.6,0-1-0.4-1-1v-5C7,38.4,7.4,38,8,38z"/>
<path id="Rectangle_545" class="st0" d="M21,19h35c0.6,0,1,0.4,1,1v5c0,0.6-0.4,1-1,1H21c-0.6,0-1-0.4-1-1v-5C20,19.4,20.4,19,21,19
	z"/>
<path id="Rectangle_546" class="st1" d="M21,28h35c0.6,0,1,0.4,1,1v6c0,0.6-0.4,1-1,1H21c-0.6,0-1-0.4-1-1v-6C20,28.4,20.4,28,21,28
	z"/>
<path id="Rectangle_548" class="st1" d="M21,38h35c0.6,0,1,0.4,1,1v5c0,0.6-0.4,1-1,1H21c-0.6,0-1-0.4-1-1v-5C20,38.4,20.4,38,21,38
	z"/>
</svg>
