<?xml version="1.0" encoding="utf-8"?>
<!-- Generator: Adobe Illustrator 24.0.3, SVG Export Plug-In . SVG Version: 6.00 Build 0)  -->
<svg version="1.1" id="Capa_1" xmlns="http://www.w3.org/2000/svg" xmlns:xlink="http://www.w3.org/1999/xlink" x="0px" y="0px"
	 viewBox="0 0 292.1 292.1" style="enable-background:new 0 0 292.1 292.1;" xml:space="preserve">
<style type="text/css">
	.st0{fill:#FFFFFF;}
</style>
<g>
	<path class="st0" d="M73.9,77.5v169.3c0,7.5,6.2,13.7,13.7,13.7h117c7.5,0,13.7-6.2,13.7-13.7V77.5H73.9z M113.3,234.6h-13V104.7
		h13V234.6z M152.6,234.6h-13V104.7h13V234.6z M191.9,234.6h-13V104.7h13V234.6z"/>
	<path class="st0" d="M233,64.8c0-14.9-12.1-26.9-26.9-26.9h-27.3v-1.4c0-2.7-2.1-4.8-4.8-4.8h-55.7c-2.7,0-4.8,2.1-4.8,4.8v1.4
		H86.1c-14.9,0-26.9,12-26.9,26.9H233z"/>
</g>
</svg>
