<svg id="Layer_1" data-name="Layer 1" xmlns="http://www.w3.org/2000/svg" xmlns:xlink="http://www.w3.org/1999/xlink" viewBox="0 0 32 32"><defs><style>.cls-1{fill:none;}.cls-2{clip-path:url(#clip-path);}.cls-3{fill:#fff;}.cls-4{clip-path:url(#clip-path-2);}.cls-5{clip-path:url(#clip-path-3);}</style><clipPath id="clip-path"><path class="cls-1" d="M-24,10.53-11.59,23a3,3,0,0,1,0,4.15h0a2.94,2.94,0,0,1-4.16,0L-28.2,14.68a2.93,2.93,0,0,1,0-4.15h0A3,3,0,0,1-24,10.53Z"/></clipPath><clipPath id="clip-path-2"><path class="cls-1" d="M11.62,19.41l.13-.14.87-.88a1,1,0,0,0,.28-1,.94.94,0,0,0-1.19-.59.85.85,0,0,0-.39.25c-.91.9-1.82,1.8-2.72,2.71a.78.78,0,0,0-.07,1.1l.08.08L9.68,22c.56.57,1.12,1.13,1.7,1.69a.93.93,0,0,0,1.31,0,1.08,1.08,0,0,0,.18-.24,1,1,0,0,0-.21-1.14l-.91-.91-.11-.11H23.3a1,1,0,0,0,.93-.75.92.92,0,0,0-.54-1.05,1.13,1.13,0,0,0-.48-.08H11.62M21,10.71H9.4a1.13,1.13,0,0,0-.48.08.91.91,0,0,0-.57,1.06,1,1,0,0,0,.94.76H21l-.11.12-.92.91a1,1,0,0,0-.26.95.88.88,0,0,0,.65.66.91.91,0,0,0,.92-.25L24,12.27l.09-.1a.78.78,0,0,0,0-1.08L21.26,8.32a.94.94,0,0,0-1.33,0,.69.69,0,0,0-.11.13A1,1,0,0,0,20,9.67l.9.9.13.14"/></clipPath><clipPath id="clip-path-3"><rect class="cls-1" x="-2.14" y="-2.44" width="36.42" height="36.42"/></clipPath></defs><title>icon</title><g id="Group_558" data-name="Group 558"><g class="cls-2"><g id="Group_294" data-name="Group 294"><path id="Path_334" data-name="Path 334" class="cls-3" d="M-26.13-1.92l27,27L-13.67,39.6l-27-27Z"/></g></g></g><g id="Group_561" data-name="Group 561"><g class="cls-4"><g id="Group_560" data-name="Group 560"><g class="cls-5"><g id="Group_559" data-name="Group 559"><path id="Path_517" data-name="Path 517" class="cls-3" d="M6.05,5.76H26.54V26.24H6.05Z"/></g></g></g></g></g></svg>