<svg viewBox="0 0 17 16" fill="none" xmlns="http://www.w3.org/2000/svg"><path d="M15.949 5v10.026a.986.986 0 01-.997.974H.997A.986.986 0 010 15.026V5h15.949zM4.192 11.417H2.375l-.09.008a.5.5 0 00-.377.317l-.024.085-.008.09v1.75l.008.09a.5.5 0 00.317.378l.084.024.09.008h1.817l.09-.008a.5.5 0 00.378-.318l.023-.084.008-.09v-1.75l-.008-.09a.5.5 0 00-.317-.38l-.084-.022-.09-.008zm4.691 0H7.066l-.09.008a.5.5 0 00-.378.317l-.023.085-.008.09v1.75l.008.09a.5.5 0 00.317.378l.084.024.09.008h1.817l.09-.008a.5.5 0 00.378-.318l.023-.084.008-.09v-1.75l-.008-.09a.5.5 0 00-.317-.38l-.084-.022-.09-.008zm-4.69-4.584H2.374l-.09.008a.5.5 0 00-.377.318l-.024.084-.008.09v1.75l.008.09a.5.5 0 00.317.379l.084.023.09.008h1.817l.09-.008a.5.5 0 00.378-.317l.023-.085.008-.09v-1.75l-.008-.09a.5.5 0 00-.317-.378l-.084-.024-.09-.008zm4.69 0H7.066l-.09.008a.5.5 0 00-.378.318l-.023.084-.008.09v1.75l.008.09a.5.5 0 00.317.379l.084.023.09.008h1.817l.09-.008a.5.5 0 00.378-.317l.023-.085.008-.09v-1.75l-.008-.09a.5.5 0 00-.317-.378l-.084-.024-.09-.008zm4.691 0h-1.818l-.09.008a.5.5 0 00-.377.318l-.023.084-.008.09v1.75l.008.09a.5.5 0 00.316.379l.085.023.09.008h1.817l.09-.008a.5.5 0 00.377-.317l.024-.085.008-.09v-1.75l-.008-.09a.5.5 0 00-.317-.378l-.084-.024-.09-.008zm-.522-5.708h1.994c.55 0 .997.476.997 1.063V4H.093V2.187c0-.586.447-1.062.998-1.062h1.993v-.063C3.084.477 3.53 0 4.081 0c.55 0 .997.476.997 1.063v.062h5.98v-.063c0-.586.447-1.062.997-1.062s.997.476.997 1.063v.062z" fill="#C3CAD8"/></svg>