<svg fill="#C3CAD8" viewBox="0 0 771 770" xmlns="http://www.w3.org/2000/svg"><path d="M385.388 769.644C172.882 769.644.612 597.374.612 384.868S172.882.092 385.388.092s384.776 172.27 384.776 384.776c-.304 212.383-172.393 384.472-384.747 384.776h-.029zm0-728.06c-189.529.081-343.141 153.743-343.141 343.284 0 189.59 153.693 343.284 343.284 343.284 189.591 0 343.284-153.693 343.284-343.284-.223-189.551-153.865-343.142-343.413-343.284h-.014zM572.121 592.33h-.027a20.629 20.629 0 01-14.636-6.065L370.725 399.532a20.664 20.664 0 01-6.065-14.651v-186.71a20.641 20.641 0 01-.018-.861c0-11.468 9.296-20.764 20.764-20.764s20.764 9.296 20.764 20.764c0 .303-.006.604-.019.903l.001 178.092 180.632 180.632a20.697 20.697 0 016.027 14.628c0 11.442-9.254 20.722-20.686 20.765h-.004z"/></svg>